<mxfile host="Electron" agent="Mozilla/5.0 (Macintosh; Intel Mac OS X 10_15_7) AppleWebKit/537.36 (KHTML, like Gecko) draw.io/25.0.2 Chrome/128.0.6613.186 Electron/32.2.5 Safari/537.36" version="25.0.2">
  <diagram name="Page-1" id="fLFD-geei8xFGMf8-HyF">
    <mxGraphModel dx="2074" dy="1214" grid="1" gridSize="10" guides="1" tooltips="1" connect="1" arrows="1" fold="1" page="1" pageScale="1" pageWidth="850" pageHeight="1100" math="0" shadow="0">
      <root>
        <mxCell id="0" />
        <mxCell id="1" parent="0" />
        <mxCell id="4HJ_1CUAeN2-ULVP7Vei-1" value="eu-central-1" style="points=[[0,0],[0.25,0],[0.5,0],[0.75,0],[1,0],[1,0.25],[1,0.5],[1,0.75],[1,1],[0.75,1],[0.5,1],[0.25,1],[0,1],[0,0.75],[0,0.5],[0,0.25]];outlineConnect=0;gradientColor=none;html=1;whiteSpace=wrap;fontSize=12;fontStyle=0;container=1;pointerEvents=0;collapsible=0;recursiveResize=0;shape=mxgraph.aws4.group;grIcon=mxgraph.aws4.group_region;strokeColor=#00A4A6;fillColor=none;verticalAlign=top;align=left;spacingLeft=30;fontColor=#147EBA;dashed=1;" parent="1" vertex="1">
          <mxGeometry x="45" y="40" width="1065" height="1000" as="geometry" />
        </mxCell>
        <mxCell id="4HJ_1CUAeN2-ULVP7Vei-29" style="edgeStyle=orthogonalEdgeStyle;rounded=0;orthogonalLoop=1;jettySize=auto;html=1;" parent="4HJ_1CUAeN2-ULVP7Vei-1" source="4HJ_1CUAeN2-ULVP7Vei-2" target="4HJ_1CUAeN2-ULVP7Vei-28" edge="1">
          <mxGeometry relative="1" as="geometry" />
        </mxCell>
        <mxCell id="4HJ_1CUAeN2-ULVP7Vei-2" value="APP VPC" style="points=[[0,0],[0.25,0],[0.5,0],[0.75,0],[1,0],[1,0.25],[1,0.5],[1,0.75],[1,1],[0.75,1],[0.5,1],[0.25,1],[0,1],[0,0.75],[0,0.5],[0,0.25]];outlineConnect=0;gradientColor=none;html=1;whiteSpace=wrap;fontSize=12;fontStyle=0;container=1;pointerEvents=0;collapsible=0;recursiveResize=0;shape=mxgraph.aws4.group;grIcon=mxgraph.aws4.group_vpc2;strokeColor=#8C4FFF;fillColor=none;verticalAlign=top;align=left;spacingLeft=30;fontColor=#AAB7B8;dashed=0;" parent="4HJ_1CUAeN2-ULVP7Vei-1" vertex="1">
          <mxGeometry x="195" y="80" width="435" height="560" as="geometry" />
        </mxCell>
        <mxCell id="4HJ_1CUAeN2-ULVP7Vei-18" value="Elastic File Storage" style="fillColor=none;strokeColor=#DD3522;verticalAlign=top;fontStyle=0;fontColor=#DD3522;whiteSpace=wrap;html=1;" parent="4HJ_1CUAeN2-ULVP7Vei-2" vertex="1">
          <mxGeometry x="240" y="20" width="60" height="480" as="geometry" />
        </mxCell>
        <mxCell id="4HJ_1CUAeN2-ULVP7Vei-9" value="app-a&amp;nbsp;&amp;nbsp;10.200.20.0/24" style="sketch=0;outlineConnect=0;gradientColor=none;html=1;whiteSpace=wrap;fontSize=12;fontStyle=0;shape=mxgraph.aws4.group;grIcon=mxgraph.aws4.group_subnet;strokeColor=#879196;fillColor=none;verticalAlign=top;align=left;spacingLeft=30;fontColor=#879196;dashed=0;" parent="4HJ_1CUAeN2-ULVP7Vei-2" vertex="1">
          <mxGeometry x="20" y="110" width="300" height="100" as="geometry" />
        </mxCell>
        <mxCell id="4HJ_1CUAeN2-ULVP7Vei-8" value="app-b&amp;nbsp;&amp;nbsp;10.200.21.0/24" style="sketch=0;outlineConnect=0;gradientColor=none;html=1;whiteSpace=wrap;fontSize=12;fontStyle=0;shape=mxgraph.aws4.group;grIcon=mxgraph.aws4.group_subnet;strokeColor=#879196;fillColor=none;verticalAlign=top;align=left;spacingLeft=30;fontColor=#879196;dashed=0;" parent="4HJ_1CUAeN2-ULVP7Vei-2" vertex="1">
          <mxGeometry x="20" y="270" width="300" height="100" as="geometry" />
        </mxCell>
        <mxCell id="4HJ_1CUAeN2-ULVP7Vei-7" value="app-c&amp;nbsp;10.200.22.0/24" style="sketch=0;outlineConnect=0;gradientColor=none;html=1;whiteSpace=wrap;fontSize=12;fontStyle=0;shape=mxgraph.aws4.group;grIcon=mxgraph.aws4.group_subnet;strokeColor=#879196;fillColor=none;verticalAlign=top;align=left;spacingLeft=30;fontColor=#879196;dashed=0;" parent="4HJ_1CUAeN2-ULVP7Vei-2" vertex="1">
          <mxGeometry x="20" y="430" width="300" height="100" as="geometry" />
        </mxCell>
        <mxCell id="4HJ_1CUAeN2-ULVP7Vei-17" value="" style="outlineConnect=0;dashed=0;verticalLabelPosition=bottom;verticalAlign=top;align=center;html=1;shape=mxgraph.aws3.efs;fillColor=#E05243;gradientColor=none;" parent="4HJ_1CUAeN2-ULVP7Vei-2" vertex="1">
          <mxGeometry x="245" y="280" width="50" height="60" as="geometry" />
        </mxCell>
        <mxCell id="4HJ_1CUAeN2-ULVP7Vei-23" style="edgeStyle=orthogonalEdgeStyle;rounded=0;orthogonalLoop=1;jettySize=auto;html=1;" parent="4HJ_1CUAeN2-ULVP7Vei-2" source="4HJ_1CUAeN2-ULVP7Vei-19" target="4HJ_1CUAeN2-ULVP7Vei-17" edge="1">
          <mxGeometry relative="1" as="geometry" />
        </mxCell>
        <mxCell id="4HJ_1CUAeN2-ULVP7Vei-19" value="&lt;div&gt;&lt;br&gt;&lt;/div&gt;&lt;div&gt;&lt;br&gt;&lt;/div&gt;&lt;div&gt;&lt;br&gt;&lt;/div&gt;&lt;div&gt;&lt;br&gt;&lt;/div&gt;&lt;div&gt;ECS Tasks&lt;/div&gt;" style="points=[];aspect=fixed;html=1;align=center;shadow=0;dashed=0;fillColor=#FF6A00;strokeColor=none;shape=mxgraph.alibaba_cloud.ecs_elastic_compute_service;" parent="4HJ_1CUAeN2-ULVP7Vei-2" vertex="1">
          <mxGeometry x="45" y="138.67" width="24.3" height="22.65" as="geometry" />
        </mxCell>
        <mxCell id="4HJ_1CUAeN2-ULVP7Vei-22" style="edgeStyle=orthogonalEdgeStyle;rounded=0;orthogonalLoop=1;jettySize=auto;html=1;" parent="4HJ_1CUAeN2-ULVP7Vei-2" source="4HJ_1CUAeN2-ULVP7Vei-20" target="4HJ_1CUAeN2-ULVP7Vei-17" edge="1">
          <mxGeometry relative="1" as="geometry" />
        </mxCell>
        <mxCell id="4HJ_1CUAeN2-ULVP7Vei-20" value="&lt;div&gt;&lt;br&gt;&lt;/div&gt;&lt;div&gt;&lt;br&gt;&lt;/div&gt;&lt;div&gt;&lt;br&gt;&lt;/div&gt;&lt;div&gt;&lt;br&gt;&lt;/div&gt;&lt;div&gt;ECS Tasks&lt;/div&gt;" style="points=[];aspect=fixed;html=1;align=center;shadow=0;dashed=0;fillColor=#FF6A00;strokeColor=none;shape=mxgraph.alibaba_cloud.ecs_elastic_compute_service;" parent="4HJ_1CUAeN2-ULVP7Vei-2" vertex="1">
          <mxGeometry x="45" y="298.66999999999996" width="24.3" height="22.65" as="geometry" />
        </mxCell>
        <mxCell id="4HJ_1CUAeN2-ULVP7Vei-24" style="edgeStyle=orthogonalEdgeStyle;rounded=0;orthogonalLoop=1;jettySize=auto;html=1;" parent="4HJ_1CUAeN2-ULVP7Vei-2" source="4HJ_1CUAeN2-ULVP7Vei-21" target="4HJ_1CUAeN2-ULVP7Vei-17" edge="1">
          <mxGeometry relative="1" as="geometry" />
        </mxCell>
        <mxCell id="4HJ_1CUAeN2-ULVP7Vei-21" value="&lt;div&gt;&lt;br&gt;&lt;/div&gt;&lt;div&gt;&lt;br&gt;&lt;/div&gt;&lt;div&gt;&lt;br&gt;&lt;/div&gt;&lt;div&gt;&lt;br&gt;&lt;/div&gt;&lt;div&gt;ECS Tasks&lt;/div&gt;" style="points=[];aspect=fixed;html=1;align=center;shadow=0;dashed=0;fillColor=#FF6A00;strokeColor=none;shape=mxgraph.alibaba_cloud.ecs_elastic_compute_service;" parent="4HJ_1CUAeN2-ULVP7Vei-2" vertex="1">
          <mxGeometry x="45" y="458.66999999999996" width="24.3" height="22.65" as="geometry" />
        </mxCell>
        <mxCell id="4HJ_1CUAeN2-ULVP7Vei-36" value="Auto Scaling group" style="points=[[0,0],[0.25,0],[0.5,0],[0.75,0],[1,0],[1,0.25],[1,0.5],[1,0.75],[1,1],[0.75,1],[0.5,1],[0.25,1],[0,1],[0,0.75],[0,0.5],[0,0.25]];outlineConnect=0;gradientColor=none;html=1;whiteSpace=wrap;fontSize=12;fontStyle=0;container=1;pointerEvents=0;collapsible=0;recursiveResize=0;shape=mxgraph.aws4.groupCenter;grIcon=mxgraph.aws4.group_auto_scaling_group;grStroke=1;strokeColor=#D86613;fillColor=none;verticalAlign=top;align=center;fontColor=#D86613;dashed=1;spacingTop=25;" parent="4HJ_1CUAeN2-ULVP7Vei-2" vertex="1">
          <mxGeometry x="30" y="60" width="155" height="470" as="geometry" />
        </mxCell>
        <mxCell id="4HJ_1CUAeN2-ULVP7Vei-25" value="APP Security Group" style="rounded=1;arcSize=10;dashed=1;strokeColor=#FB82FF;fillColor=none;gradientColor=none;dashPattern=8 4;strokeWidth=2;verticalAlign=top;fontColor=#FFB570;labelBackgroundColor=#6E6E6E;" parent="4HJ_1CUAeN2-ULVP7Vei-2" vertex="1">
          <mxGeometry x="10" y="30" width="190" height="500" as="geometry" />
        </mxCell>
        <mxCell id="4HJ_1CUAeN2-ULVP7Vei-11" value="RDS VPC" style="points=[[0,0],[0.25,0],[0.5,0],[0.75,0],[1,0],[1,0.25],[1,0.5],[1,0.75],[1,1],[0.75,1],[0.5,1],[0.25,1],[0,1],[0,0.75],[0,0.5],[0,0.25]];outlineConnect=0;gradientColor=none;html=1;whiteSpace=wrap;fontSize=12;fontStyle=0;container=1;pointerEvents=0;collapsible=0;recursiveResize=0;shape=mxgraph.aws4.group;grIcon=mxgraph.aws4.group_vpc2;strokeColor=#8C4FFF;fillColor=none;verticalAlign=top;align=left;spacingLeft=30;fontColor=#AAB7B8;dashed=0;" parent="4HJ_1CUAeN2-ULVP7Vei-1" vertex="1">
          <mxGeometry x="795" y="80" width="200" height="560" as="geometry" />
        </mxCell>
        <mxCell id="4HJ_1CUAeN2-ULVP7Vei-12" value="rds-a&amp;nbsp;&amp;nbsp;10.200.10.0/24" style="sketch=0;outlineConnect=0;gradientColor=none;html=1;whiteSpace=wrap;fontSize=12;fontStyle=0;shape=mxgraph.aws4.group;grIcon=mxgraph.aws4.group_subnet;strokeColor=#879196;fillColor=none;verticalAlign=top;align=left;spacingLeft=30;fontColor=#879196;dashed=0;" parent="4HJ_1CUAeN2-ULVP7Vei-11" vertex="1">
          <mxGeometry x="20" y="40" width="160" height="120" as="geometry" />
        </mxCell>
        <mxCell id="4HJ_1CUAeN2-ULVP7Vei-13" value="rds-b&amp;nbsp;&amp;nbsp;10.200.11.0/24" style="sketch=0;outlineConnect=0;gradientColor=none;html=1;whiteSpace=wrap;fontSize=12;fontStyle=0;shape=mxgraph.aws4.group;grIcon=mxgraph.aws4.group_subnet;strokeColor=#879196;fillColor=none;verticalAlign=top;align=left;spacingLeft=30;fontColor=#879196;dashed=0;" parent="4HJ_1CUAeN2-ULVP7Vei-11" vertex="1">
          <mxGeometry x="20" y="200" width="160" height="120" as="geometry" />
        </mxCell>
        <mxCell id="4HJ_1CUAeN2-ULVP7Vei-14" value="rds-c&amp;nbsp;10.200.12.0/24" style="sketch=0;outlineConnect=0;gradientColor=none;html=1;whiteSpace=wrap;fontSize=12;fontStyle=0;shape=mxgraph.aws4.group;grIcon=mxgraph.aws4.group_subnet;strokeColor=#879196;fillColor=none;verticalAlign=top;align=left;spacingLeft=30;fontColor=#879196;dashed=0;" parent="4HJ_1CUAeN2-ULVP7Vei-11" vertex="1">
          <mxGeometry x="20" y="360" width="160" height="120" as="geometry" />
        </mxCell>
        <mxCell id="4HJ_1CUAeN2-ULVP7Vei-15" value="RDS DB Writer" style="outlineConnect=0;dashed=0;verticalLabelPosition=bottom;verticalAlign=top;align=center;html=1;shape=mxgraph.aws3.rds_db_instance;fillColor=#2E73B8;gradientColor=none;" parent="4HJ_1CUAeN2-ULVP7Vei-11" vertex="1">
          <mxGeometry x="120" y="80" width="30" height="40" as="geometry" />
        </mxCell>
        <mxCell id="4HJ_1CUAeN2-ULVP7Vei-16" value="RDS Replica" style="outlineConnect=0;dashed=0;verticalLabelPosition=bottom;verticalAlign=top;align=center;html=1;shape=mxgraph.aws3.rds_db_instance;fillColor=#2E73B8;gradientColor=none;" parent="4HJ_1CUAeN2-ULVP7Vei-11" vertex="1">
          <mxGeometry x="120" y="240" width="30" height="40" as="geometry" />
        </mxCell>
        <mxCell id="4HJ_1CUAeN2-ULVP7Vei-27" value="RDS Security Group" style="rounded=1;arcSize=10;dashed=1;strokeColor=#ff0000;fillColor=none;gradientColor=none;dashPattern=8 4;strokeWidth=2;verticalAlign=top;fontColor=#FFB969;labelBackgroundColor=#6E6E6E;" parent="4HJ_1CUAeN2-ULVP7Vei-11" vertex="1">
          <mxGeometry x="60" y="60" width="130" height="270" as="geometry" />
        </mxCell>
        <mxCell id="baAT_ktDrLNEHmpY2uOX-1" value="&lt;div&gt;&lt;br&gt;&lt;/div&gt;&lt;div&gt;&lt;br&gt;&lt;/div&gt;&lt;div&gt;&lt;br&gt;&lt;/div&gt;&lt;div&gt;&lt;br&gt;&lt;/div&gt;&lt;div&gt;&lt;br&gt;&lt;/div&gt;&lt;div&gt;Redis cache&lt;/div&gt;" style="points=[];aspect=fixed;html=1;align=center;shadow=0;dashed=0;fillColor=#FF6A00;strokeColor=none;shape=mxgraph.alibaba_cloud.redis_kvstore;" vertex="1" parent="4HJ_1CUAeN2-ULVP7Vei-11">
          <mxGeometry x="120" y="399" width="38.93" height="30.7" as="geometry" />
        </mxCell>
        <mxCell id="baAT_ktDrLNEHmpY2uOX-2" value="Redis Security Group" style="rounded=1;arcSize=10;dashed=1;strokeColor=#ff0000;fillColor=none;gradientColor=none;dashPattern=8 4;strokeWidth=2;verticalAlign=top;fontColor=#FFB969;labelBackgroundColor=#6E6E6E;" vertex="1" parent="4HJ_1CUAeN2-ULVP7Vei-11">
          <mxGeometry x="60" y="380" width="130" height="100" as="geometry" />
        </mxCell>
        <mxCell id="4HJ_1CUAeN2-ULVP7Vei-30" style="edgeStyle=orthogonalEdgeStyle;rounded=0;orthogonalLoop=1;jettySize=auto;html=1;entryX=0;entryY=0.5;entryDx=0;entryDy=0;" parent="4HJ_1CUAeN2-ULVP7Vei-1" source="4HJ_1CUAeN2-ULVP7Vei-28" target="4HJ_1CUAeN2-ULVP7Vei-11" edge="1">
          <mxGeometry relative="1" as="geometry" />
        </mxCell>
        <mxCell id="4HJ_1CUAeN2-ULVP7Vei-28" value="" style="outlineConnect=0;dashed=0;verticalLabelPosition=bottom;verticalAlign=top;align=center;html=1;shape=mxgraph.aws3.vpc_peering;fillColor=#F58534;gradientColor=none;" parent="4HJ_1CUAeN2-ULVP7Vei-1" vertex="1">
          <mxGeometry x="665" y="324" width="69" height="72" as="geometry" />
        </mxCell>
        <mxCell id="4HJ_1CUAeN2-ULVP7Vei-32" value="Route Table" style="outlineConnect=0;dashed=0;verticalLabelPosition=bottom;verticalAlign=top;align=center;html=1;shape=mxgraph.aws3.route_table;fillColor=#F58536;gradientColor=none;" parent="4HJ_1CUAeN2-ULVP7Vei-1" vertex="1">
          <mxGeometry x="755" y="400" width="40" height="40" as="geometry" />
        </mxCell>
        <mxCell id="4HJ_1CUAeN2-ULVP7Vei-31" value="Route Table" style="outlineConnect=0;dashed=0;verticalLabelPosition=bottom;verticalAlign=top;align=center;html=1;shape=mxgraph.aws3.route_table;fillColor=#F58536;gradientColor=none;" parent="4HJ_1CUAeN2-ULVP7Vei-1" vertex="1">
          <mxGeometry x="635" y="400" width="40" height="40" as="geometry" />
        </mxCell>
        <mxCell id="4HJ_1CUAeN2-ULVP7Vei-33" value="Application Load Balancer" style="outlineConnect=0;dashed=0;verticalLabelPosition=bottom;verticalAlign=top;align=center;html=1;shape=mxgraph.aws3.application_load_balancer;fillColor=#F58534;gradientColor=none;" parent="4HJ_1CUAeN2-ULVP7Vei-1" vertex="1">
          <mxGeometry x="45" y="324" width="69" height="72" as="geometry" />
        </mxCell>
        <mxCell id="4HJ_1CUAeN2-ULVP7Vei-35" style="edgeStyle=orthogonalEdgeStyle;rounded=0;orthogonalLoop=1;jettySize=auto;html=1;entryX=0.308;entryY=0.488;entryDx=0;entryDy=0;entryPerimeter=0;" parent="4HJ_1CUAeN2-ULVP7Vei-1" source="4HJ_1CUAeN2-ULVP7Vei-33" target="4HJ_1CUAeN2-ULVP7Vei-25" edge="1">
          <mxGeometry relative="1" as="geometry" />
        </mxCell>
      </root>
    </mxGraphModel>
  </diagram>
</mxfile>
